<mxfile host="app.diagrams.net" agent="Mozilla/5.0 (Macintosh; Intel Mac OS X 10_15_7) AppleWebKit/537.36 (KHTML, like Gecko) Chrome/127.0.0.0 Safari/537.36" version="24.7.7" pages="2">
  <diagram name="Page-1" id="dCJ2klqYW2XMoEyI3Qbc">
    <mxGraphModel dx="927" dy="580" grid="1" gridSize="10" guides="1" tooltips="1" connect="1" arrows="1" fold="1" page="1" pageScale="1" pageWidth="827" pageHeight="1169" math="0" shadow="0">
      <root>
        <mxCell id="0" />
        <mxCell id="1" parent="0" />
        <mxCell id="F_0H_4BJYs4ZDbMHEmpx-1" value="" style="edgeStyle=none;orthogonalLoop=1;jettySize=auto;html=1;rounded=0;strokeWidth=4;" edge="1" parent="1">
          <mxGeometry width="80" relative="1" as="geometry">
            <mxPoint x="120" y="400" as="sourcePoint" />
            <mxPoint x="120" y="290" as="targetPoint" />
            <Array as="points" />
          </mxGeometry>
        </mxCell>
        <mxCell id="F_0H_4BJYs4ZDbMHEmpx-2" value="" style="edgeStyle=none;orthogonalLoop=1;jettySize=auto;html=1;rounded=0;strokeWidth=4;" edge="1" parent="1">
          <mxGeometry width="80" relative="1" as="geometry">
            <mxPoint x="120" y="400" as="sourcePoint" />
            <mxPoint x="630" y="400" as="targetPoint" />
            <Array as="points" />
          </mxGeometry>
        </mxCell>
        <mxCell id="F_0H_4BJYs4ZDbMHEmpx-3" value="Protection de la vie privée" style="text;strokeColor=none;align=center;fillColor=none;html=1;verticalAlign=middle;whiteSpace=wrap;rounded=0;fontSize=16;" vertex="1" parent="1">
          <mxGeometry x="90" y="240" width="60" height="30" as="geometry" />
        </mxCell>
        <mxCell id="F_0H_4BJYs4ZDbMHEmpx-4" value="Circulation des données" style="text;strokeColor=none;align=center;fillColor=none;html=1;verticalAlign=middle;whiteSpace=wrap;rounded=0;fontSize=16;" vertex="1" parent="1">
          <mxGeometry x="650" y="380" width="60" height="30" as="geometry" />
        </mxCell>
        <mxCell id="F_0H_4BJYs4ZDbMHEmpx-6" value="RGPD" style="text;html=1;align=center;verticalAlign=middle;resizable=0;points=[];autosize=1;strokeColor=default;fillColor=none;fontSize=16;fontStyle=1" vertex="1" parent="1">
          <mxGeometry x="130" y="340" width="70" height="30" as="geometry" />
        </mxCell>
        <mxCell id="F_0H_4BJYs4ZDbMHEmpx-7" value="" style="edgeStyle=none;orthogonalLoop=1;jettySize=auto;html=1;rounded=0;strokeWidth=4;shadow=1;fillColor=#e1d5e7;strokeColor=#9673a6;exitX=1;exitY=0.3;exitDx=0;exitDy=0;exitPerimeter=0;endArrow=none;endFill=0;" edge="1" parent="1">
          <mxGeometry width="80" relative="1" as="geometry">
            <mxPoint x="210" y="354.5" as="sourcePoint" />
            <mxPoint x="660" y="356" as="targetPoint" />
            <Array as="points" />
          </mxGeometry>
        </mxCell>
        <mxCell id="F_0H_4BJYs4ZDbMHEmpx-12" value="Standard à respecter" style="edgeLabel;html=1;align=center;verticalAlign=middle;resizable=0;points=[];fontSize=14;" vertex="1" connectable="0" parent="F_0H_4BJYs4ZDbMHEmpx-7">
          <mxGeometry x="-0.5433" y="-1" relative="1" as="geometry">
            <mxPoint as="offset" />
          </mxGeometry>
        </mxCell>
        <mxCell id="F_0H_4BJYs4ZDbMHEmpx-9" value="Règlement&amp;nbsp;&lt;br&gt;IA" style="text;html=1;align=center;verticalAlign=middle;resizable=0;points=[];autosize=1;strokeColor=default;fillColor=none;fontSize=16;fontStyle=1" vertex="1" parent="1">
          <mxGeometry x="470" y="270" width="110" height="50" as="geometry" />
        </mxCell>
        <mxCell id="F_0H_4BJYs4ZDbMHEmpx-10" value="Règlement&amp;nbsp;&lt;br&gt;Gouvernance &lt;br&gt;Données" style="text;html=1;align=center;verticalAlign=middle;resizable=0;points=[];autosize=1;strokeColor=default;fillColor=none;fontSize=16;fontStyle=1" vertex="1" parent="1">
          <mxGeometry x="350" y="280" width="120" height="70" as="geometry" />
        </mxCell>
        <mxCell id="F_0H_4BJYs4ZDbMHEmpx-11" value="Règlement &lt;br&gt;Données" style="text;html=1;align=center;verticalAlign=middle;resizable=0;points=[];autosize=1;strokeColor=default;fillColor=none;fontSize=16;fontStyle=1" vertex="1" parent="1">
          <mxGeometry x="560" y="220" width="100" height="50" as="geometry" />
        </mxCell>
        <mxCell id="F_0H_4BJYs4ZDbMHEmpx-14" value="&lt;b&gt;Focus sur les perspectives économiques&lt;/b&gt;" style="rounded=0;whiteSpace=wrap;html=1;fontSize=15;gradientColor=#04b95b;gradientDirection=east;fillColor=#f40606;" vertex="1" parent="1">
          <mxGeometry x="120" y="430" width="510" height="40" as="geometry" />
        </mxCell>
        <mxCell id="F_0H_4BJYs4ZDbMHEmpx-15" value="2023" style="text;html=1;align=center;verticalAlign=middle;resizable=0;points=[];autosize=1;strokeColor=none;fillColor=none;" vertex="1" parent="1">
          <mxGeometry x="385" y="250" width="50" height="30" as="geometry" />
        </mxCell>
        <mxCell id="F_0H_4BJYs4ZDbMHEmpx-16" value="2024" style="text;html=1;align=center;verticalAlign=middle;resizable=0;points=[];autosize=1;strokeColor=none;fillColor=none;" vertex="1" parent="1">
          <mxGeometry x="500" y="240" width="50" height="30" as="geometry" />
        </mxCell>
        <mxCell id="F_0H_4BJYs4ZDbMHEmpx-17" value="2025" style="text;html=1;align=center;verticalAlign=middle;resizable=0;points=[];autosize=1;strokeColor=none;fillColor=none;" vertex="1" parent="1">
          <mxGeometry x="585" y="190" width="50" height="30" as="geometry" />
        </mxCell>
        <mxCell id="F_0H_4BJYs4ZDbMHEmpx-18" value="2018" style="text;html=1;align=center;verticalAlign=middle;resizable=0;points=[];autosize=1;strokeColor=none;fillColor=none;" vertex="1" parent="1">
          <mxGeometry x="140" y="310" width="50" height="30" as="geometry" />
        </mxCell>
      </root>
    </mxGraphModel>
  </diagram>
  <diagram id="vkKdzaTx_MCcFKMDXi1w" name="Gouvernance données">
    <mxGraphModel dx="927" dy="580" grid="1" gridSize="10" guides="1" tooltips="1" connect="1" arrows="1" fold="1" page="1" pageScale="1" pageWidth="827" pageHeight="1169" math="0" shadow="0">
      <root>
        <mxCell id="0" />
        <mxCell id="1" parent="0" />
        <mxCell id="CzWvKQgy6cBFuTGpCcyS-1" value="&lt;span&gt;&lt;font style=&quot;font-size: 14px;&quot;&gt;Organisation A&lt;/font&gt;&lt;/span&gt;" style="rounded=0;whiteSpace=wrap;html=1;verticalAlign=top;fontStyle=1" vertex="1" parent="1">
          <mxGeometry x="40" y="120" width="280" height="470" as="geometry" />
        </mxCell>
        <mxCell id="CzWvKQgy6cBFuTGpCcyS-2" value="&lt;span&gt;&lt;font style=&quot;font-size: 14px;&quot;&gt;Organisation B&lt;/font&gt;&lt;/span&gt;&lt;span style=&quot;color: rgba(0, 0, 0, 0); font-family: monospace; font-size: 0px; font-weight: 400; text-align: start; text-wrap: nowrap;&quot;&gt;%3CmxGraphModel%3E%3Croot%3E%3CmxCell%20id%3D%220%22%2F%3E%3CmxCell%20id%3D%221%22%20parent%3D%220%22%2F%3E%3CmxCell%20id%3D%222%22%20value%3D%22%26lt%3Bspan%26gt%3B%26lt%3Bfont%20style%3D%26quot%3Bfont-size%3A%2014px%3B%26quot%3B%26gt%3BOrganisation%20A%26lt%3B%2Ffont%26gt%3B%26lt%3B%2Fspan%26gt%3B%22%20style%3D%22rounded%3D0%3BwhiteSpace%3Dwrap%3Bhtml%3D1%3BverticalAlign%3Dtop%3BfontStyle%3D1%22%20vertex%3D%221%22%20parent%3D%221%22%3E%3CmxGeometry%20x%3D%2240%22%20y%3D%22120%22%20width%3D%22280%22%20height%3D%22470%22%20as%3D%22geometry%22%2F%3E%3C%2FmxCell%3E%3C%2Froot%3E%3C%2FmxGraphModel%3E&lt;/span&gt;" style="rounded=0;whiteSpace=wrap;html=1;verticalAlign=top;fontStyle=1" vertex="1" parent="1">
          <mxGeometry x="330" y="120" width="280" height="470" as="geometry" />
        </mxCell>
        <mxCell id="CzWvKQgy6cBFuTGpCcyS-3" value="&lt;span&gt;&lt;font style=&quot;font-size: 14px;&quot;&gt;Organisation C&lt;/font&gt;&lt;/span&gt;&lt;span style=&quot;color: rgba(0, 0, 0, 0); font-family: monospace; font-size: 0px; font-weight: 400; text-align: start; text-wrap: nowrap;&quot;&gt;%3CmxGraphModel%3E%3Croot%3E%3CmxCell%20id%3D%220%22%2F%3E%3CmxCell%20id%3D%221%22%20parent%3D%220%22%2F%3E%3CmxCell%20id%3D%222%22%20value%3D%22%26lt%3Bspan%26gt%3B%26lt%3Bfont%20style%3D%26quot%3Bfont-size%3A%2014px%3B%26quot%3B%26gt%3BOrganisation%20A%26lt%3B%2Ffont%26gt%3B%26lt%3B%2Fspan%26gt%3B%22%20style%3D%22rounded%3D0%3BwhiteSpace%3Dwrap%3Bhtml%3D1%3BverticalAlign%3Dtop%3BfontStyle%3D1%22%20vertex%3D%221%22%20parent%3D%221%22%3E%3CmxGeometry%20x%3D%2240%22%20y%3D%22120%22%20width%3D%22280%22%20height%3D%22470%22%20as%3D%22geometry%22%2F%3E%3C%2FmxCell%3E%3C%2Froot%3E%3C%2FmxGraphModel%3E&lt;/span&gt;" style="rounded=0;whiteSpace=wrap;html=1;verticalAlign=top;fontStyle=1" vertex="1" parent="1">
          <mxGeometry x="620" y="120" width="280" height="470" as="geometry" />
        </mxCell>
        <mxCell id="CzWvKQgy6cBFuTGpCcyS-4" value="Valeur perçue de la collaboration" style="rounded=1;whiteSpace=wrap;html=1;fontSize=14;glass=0;shadow=0;strokeWidth=2;" vertex="1" parent="1">
          <mxGeometry x="50" y="160" width="840" height="60" as="geometry" />
        </mxCell>
        <mxCell id="CzWvKQgy6cBFuTGpCcyS-5" value="Administration de données hétérogènes" style="rounded=1;whiteSpace=wrap;html=1;fontSize=14;glass=0;shadow=0;strokeWidth=2;" vertex="1" parent="1">
          <mxGeometry x="50" y="230" width="840" height="60" as="geometry" />
        </mxCell>
        <mxCell id="CzWvKQgy6cBFuTGpCcyS-6" value="Vision d&#39;ensemble des données" style="rounded=1;whiteSpace=wrap;html=1;fontSize=14;glass=0;shadow=0;strokeWidth=2;" vertex="1" parent="1">
          <mxGeometry x="50" y="300" width="840" height="60" as="geometry" />
        </mxCell>
        <mxCell id="CzWvKQgy6cBFuTGpCcyS-7" value="Harmonisation des pratiques locales" style="rounded=1;whiteSpace=wrap;html=1;fontSize=14;glass=0;shadow=0;strokeWidth=2;" vertex="1" parent="1">
          <mxGeometry x="50" y="370" width="840" height="60" as="geometry" />
        </mxCell>
        <mxCell id="CzWvKQgy6cBFuTGpCcyS-8" value="Volonté stratégique partagée" style="rounded=1;whiteSpace=wrap;html=1;fontSize=14;glass=0;shadow=0;strokeWidth=2;" vertex="1" parent="1">
          <mxGeometry x="50" y="440" width="840" height="60" as="geometry" />
        </mxCell>
        <mxCell id="CzWvKQgy6cBFuTGpCcyS-9" value="Valeur perçue de la collaboration" style="rounded=1;whiteSpace=wrap;html=1;fontSize=14;glass=0;shadow=0;strokeWidth=2;" vertex="1" parent="1">
          <mxGeometry x="50" y="510" width="840" height="60" as="geometry" />
        </mxCell>
        <mxCell id="CzWvKQgy6cBFuTGpCcyS-10" value="" style="shape=image;html=1;verticalLabelPosition=bottom;verticalAlign=top;imageAspect=0;image=img/clipart/Gear_128x128.png" vertex="1" parent="1">
          <mxGeometry x="290" y="305" width="50" height="50" as="geometry" />
        </mxCell>
        <mxCell id="CzWvKQgy6cBFuTGpCcyS-11" value="" style="shape=image;html=1;verticalLabelPosition=bottom;verticalAlign=top;imageAspect=0;image=img/clipart/Gear_128x128.png" vertex="1" parent="1">
          <mxGeometry x="600" y="305" width="50" height="50" as="geometry" />
        </mxCell>
        <mxCell id="CzWvKQgy6cBFuTGpCcyS-12" value="" style="shape=image;html=1;verticalLabelPosition=bottom;verticalAlign=top;imageAspect=0;image=img/clipart/Gear_128x128.png" vertex="1" parent="1">
          <mxGeometry x="290" y="235" width="50" height="50" as="geometry" />
        </mxCell>
        <mxCell id="CzWvKQgy6cBFuTGpCcyS-13" value="" style="shape=image;html=1;verticalLabelPosition=bottom;verticalAlign=top;imageAspect=0;image=img/clipart/Gear_128x128.png" vertex="1" parent="1">
          <mxGeometry x="600" y="230" width="50" height="50" as="geometry" />
        </mxCell>
        <mxCell id="CzWvKQgy6cBFuTGpCcyS-14" value="" style="shape=image;html=1;verticalLabelPosition=bottom;verticalAlign=top;imageAspect=0;image=img/clipart/Gear_128x128.png" vertex="1" parent="1">
          <mxGeometry x="290" y="375" width="50" height="50" as="geometry" />
        </mxCell>
        <mxCell id="CzWvKQgy6cBFuTGpCcyS-15" value="" style="shape=image;html=1;verticalLabelPosition=bottom;verticalAlign=top;imageAspect=0;image=img/clipart/Gear_128x128.png" vertex="1" parent="1">
          <mxGeometry x="600" y="375" width="50" height="50" as="geometry" />
        </mxCell>
      </root>
    </mxGraphModel>
  </diagram>
</mxfile>
